<svg width="27" height="27" viewBox="0 0 27 27" fill="none" xmlns="http://www.w3.org/2000/svg">
<g clip-path="url(#clip0_102_8735)">
<path d="M13.5 1.1875C6.70062 1.1875 1.1875 6.70062 1.1875 13.5C1.1875 20.2994 6.70062 25.8125 13.5 25.8125C20.2994 25.8125 25.8125 20.2994 25.8125 13.5C25.8125 6.70062 20.2994 1.1875 13.5 1.1875ZM13.5 22.8086C8.36032 22.8086 4.19141 18.6397 4.19141 13.5C4.19141 8.36032 8.36032 4.19141 13.5 4.19141C18.6397 4.19141 22.8086 8.36032 22.8086 13.5C22.8086 18.6397 18.6397 22.8086 13.5 22.8086Z" fill="#474747" stroke="#474747"/>
<path d="M12.2344 8.85938C12.2344 9.19504 12.3677 9.51696 12.6051 9.75431C12.8424 9.99166 13.1643 10.125 13.5 10.125C13.8357 10.125 14.1576 9.99166 14.3949 9.75431C14.6323 9.51696 14.7656 9.19504 14.7656 8.85938C14.7656 8.52371 14.6323 8.20179 14.3949 7.96444C14.1576 7.72709 13.8357 7.59375 13.5 7.59375C13.1643 7.59375 12.8424 7.72709 12.6051 7.96444C12.3677 8.20179 12.2344 8.52371 12.2344 8.85938ZM12.8672 11.8125C12.7512 11.8125 12.6562 11.9074 12.6562 12.0234V19.1953C12.6562 19.3113 12.7512 19.4062 12.8672 19.4062H14.1328C14.2488 19.4062 14.3438 19.3113 14.3438 19.1953V12.0234C14.3438 11.9074 14.2488 11.8125 14.1328 11.8125H12.8672Z" fill="#474747"/>
<path d="M12.2344 8.85938C12.2344 9.19504 12.3677 9.51696 12.6051 9.75431C12.8424 9.99166 13.1643 10.125 13.5 10.125C13.8357 10.125 14.1576 9.99166 14.3949 9.75431C14.6323 9.51696 14.7656 9.19504 14.7656 8.85938C14.7656 8.52371 14.6323 8.20179 14.3949 7.96444C14.1576 7.72709 13.8357 7.59375 13.5 7.59375C13.1643 7.59375 12.8424 7.72709 12.6051 7.96444C12.3677 8.20179 12.2344 8.52371 12.2344 8.85938ZM12.8672 11.8125C12.7512 11.8125 12.6562 11.9074 12.6562 12.0234V19.1953C12.6562 19.3113 12.7512 19.4062 12.8672 19.4062H14.1328C14.2488 19.4062 14.3438 19.3113 14.3438 19.1953V12.0234C14.3438 11.9074 14.2488 11.8125 14.1328 11.8125H12.8672Z" stroke="#474747"/>
</g>
<defs>
<clipPath id="clip0_102_8735">
<rect width="27" height="27" fill="white"/>
</clipPath>
</defs>
</svg>
